<?xml version="1.0" encoding="utf-8"?>
<!-- Generator: Adobe Illustrator 23.1.0, SVG Export Plug-In . SVG Version: 6.00 Build 0)  -->
<svg version="1.1" id="Camada_1" xmlns="http://www.w3.org/2000/svg" xmlns:xlink="http://www.w3.org/1999/xlink" x="0px" y="0px"
	 viewBox="0 0 30 30" style="enable-background:new 0 0 30 30;" xml:space="preserve">
<style type="text/css">
	.st0{fill:#EEEEEE;}
</style>
<g>
	<path class="st0" d="M27.8,8.4l-6.1-6.2c-1.4-1.4-4-2.1-5.9-1.6L7.3,2.9C5.4,3.4,3.5,5.3,2.9,7.2l-2.3,8.4c-0.5,1.9,0.2,4.6,1.6,6
		l6.1,6.1c1.4,1.4,4.1,2.1,5.9,1.6l8.4-2.2c1.9-0.5,3.9-2.5,4.4-4.3l2.3-8.4C29.9,12.5,29.1,9.8,27.8,8.4z M22.2,15.3
		c-1.1,1.4-3.1,2-4.7,1.2c-0.5-0.2-0.8-0.1-1.1,0.1c-1.9,1.1-3.9,2.2-5.9,3.4c-0.8,0.5-1.5,0.4-2.3,0c-0.7-0.4-1-1.1-0.9-2
		c0.1-0.8,0.5-1.3,1.2-1.6c1.8-1,3.6-2.1,5.5-3.1c0.6-0.3,1.1-0.6,1.1-1.3c0.5-2.1,2-3.3,4-3.3c0.5,0,1-0.1,1.2,0.5
		c0.2,0.6-0.4,0.7-0.8,0.9c-1.2,0.8-1.6,1.5-1.3,2.5c0.4,1.4,1.7,1.9,3,1.3c0.5-0.2,1.1-0.9,1.6-0.3C23.2,14.2,22.5,14.8,22.2,15.3z
		"/>
</g>
</svg>
