<?xml version="1.0" encoding="utf-8"?>
<!-- Generator: Adobe Illustrator 23.1.0, SVG Export Plug-In . SVG Version: 6.00 Build 0)  -->
<svg version="1.1" id="Camada_1" xmlns="http://www.w3.org/2000/svg" xmlns:xlink="http://www.w3.org/1999/xlink" x="0px" y="0px"
	 viewBox="0 0 30 30" style="enable-background:new 0 0 30 30;" xml:space="preserve">
<style type="text/css">
	.st0{fill:#E3B132;}
</style>
<g>
	<path class="st0" d="M27.76,8.44l-6.11-6.15C20.27,0.9,17.6,0.17,15.7,0.67L7.32,2.88c-1.89,0.5-3.86,2.45-4.38,4.34l-2.28,8.36
		c-0.51,1.89,0.19,4.57,1.57,5.96l6.11,6.15c1.38,1.39,4.06,2.12,5.95,1.62l8.38-2.21c1.89-0.5,3.86-2.45,4.38-4.34l2.28-8.37
		C29.85,12.52,29.14,9.83,27.76,8.44z M22.18,15.26c-1.09,1.42-3.13,1.96-4.71,1.22c-0.46-0.22-0.76-0.11-1.13,0.1
		c-1.95,1.13-3.92,2.24-5.87,3.37c-0.77,0.45-1.54,0.41-2.26-0.02C7.5,19.51,7.22,18.8,7.3,17.98c0.07-0.75,0.53-1.26,1.18-1.62
		c1.82-1.04,3.64-2.1,5.47-3.12c0.59-0.33,1.1-0.65,1.05-1.32c0.54-2.07,2.03-3.29,3.98-3.31c0.47,0,1.02-0.06,1.19,0.53
		c0.17,0.6-0.4,0.72-0.75,0.94c-1.25,0.79-1.63,1.49-1.34,2.53c0.38,1.35,1.71,1.88,3.04,1.27c0.5-0.23,1.06-0.95,1.59-0.27
		C23.19,14.23,22.55,14.78,22.18,15.26z"/>
</g>
</svg>
